<svg xmlns="http://www.w3.org/2000/svg" viewBox="0 0 2712.19 4095.5"><title>Ресурс 1</title><g id="Слой_2" data-name="Слой 2"><g id="Layer_1" data-name="Layer 1"><path  fill="#9bbb22" d="M2712.19,1356.09C2712.19,607.75,2104.44,0,1356.09,0S0,607.75,0,1356.09c0,231.31,59,444.47,158.74,635l816.38,1542h0l240.38,453.54c77.1,145.13,204.09,145.13,281.2,0l158.74-294.8L2558,1991.05h0C2653.23,1800.57,2712.19,1587.4,2712.19,1356.09ZM1356.09,1836.85c-267.59,0-480.76-213.17-480.76-480.75s213.17-480.76,480.76-480.76,480.76,213.17,480.76,480.76S1623.68,1836.85,1356.09,1836.85Z"/></g></g></svg>